<?xml version="1.0" encoding="utf-8"?>
<!-- Generator: Adobe Illustrator 16.0.4, SVG Export Plug-In . SVG Version: 6.00 Build 0)  -->
<!DOCTYPE svg PUBLIC "-//W3C//DTD SVG 1.1//EN" "http://www.w3.org/Graphics/SVG/1.1/DTD/svg11.dtd">
<svg version="1.1" xmlns="http://www.w3.org/2000/svg" xmlns:xlink="http://www.w3.org/1999/xlink" x="0px" y="0px" width="300px"
	 height="150px" viewBox="0 0 300 150" enable-background="new 0 0 300 150" xml:space="preserve">
    
<g id="svg_logo" style="fill:#992e38; stroke:#e1c674; stroke-width:.7;">
	<g >
		<path  d="M99.196,42.443c0,0.422-0.246,0.633-0.738,0.633c-0.211,0-0.997-0.141-2.355-0.422c-2.508-0.515-4.594-0.773-6.258-0.773
			c-3.774,1.148-7.107,3.375-10.002,6.68c-2.895,3.305-6.193,8.661-9.896,16.066c-5.672,11.368-12.938,18.083-21.797,20.145
			c1.853,0.281,3.459,0.422,4.82,0.422c4.315,0,7.939-1.385,10.872-4.154c2.837-2.676,5.195-5.515,7.071-8.52
			c0.211-0.329,0.375-0.493,0.493-0.493c0.141,0,0.223,0.047,0.246,0.141c0,0.352-1.349,2.171-4.045,5.457
			c-2.51,3.074-4.796,5.192-6.859,6.354c-2.064,1.16-4.585,1.742-7.562,1.742c-1.712,0-3.8-0.246-6.262-0.738
			c-1.501,0.492-3.225,0.738-5.171,0.738c-1.36,0-2.04-0.246-2.04-0.738c0-0.562,0.914-0.844,2.742-0.844
			c1.289,0,2.777,0.117,4.465,0.352c3.633-0.867,6.381-2.297,8.244-4.289s5.455-7.383,10.775-16.172H52.403
			c-5.743,6.047-10.184,10.348-13.324,12.903c-7.336,5.953-14.25,8.93-20.742,8.93c-3.704,0-6.85-0.867-9.439-2.602
			c-2.59-1.734-3.885-3.844-3.885-6.328c0-1.289,0.392-2.391,1.178-3.305c0.785-0.914,1.74-1.371,2.865-1.371
			c1.523,0,2.285,0.738,2.285,2.215c0,0.773-0.262,1.436-0.786,1.987s-1.135,0.826-1.833,0.826c-1.095,0-1.642-0.527-1.642-1.583
			l0.07-0.703c0.046-0.093,0.07-0.223,0.07-0.387c0-0.234-0.105-0.352-0.314-0.352c-0.232,0-0.466,0.293-0.698,0.879
			c-0.233,0.586-0.35,1.184-0.35,1.793c0,2.297,1.206,4.236,3.618,5.818s5.375,2.373,8.888,2.373c5.035,0,10.573-2.473,16.615-7.418
			c1.382-1.102,2.916-2.555,4.603-4.36c3.349-3.516,6.018-6.258,8.009-8.227l1.054-1.09h-6.82l0.422-0.633
			c2.25,0,4.558,0.023,6.926,0.07c6.867-7.641,13.529-13.224,19.986-16.752c6.457-3.527,13.283-5.314,20.479-5.361
			c1.664-0.328,3.222-0.492,4.676-0.492C97.566,40.861,99.196,41.388,99.196,42.443z M61.561,48.824
			c0,0.259-0.435,0.882-1.302,1.869c-2.394,2.75-4.659,4.125-6.794,4.125c-1.361,0-2.471-0.475-3.328-1.424
			s-1.285-2.197-1.285-3.744c0-1.312,0.773-3.433,2.32-6.363c0.726-1.359,1.09-2.484,1.09-3.375c0-1.172-0.65-2.174-1.951-3.006
			c-1.301-0.832-2.889-1.248-4.764-1.248c-5.367,0-10.342,2.062-14.924,6.188c-4.583,4.125-6.873,8.59-6.873,13.395
			c0,2.438,0.768,4.43,2.304,5.977c1.537,1.547,3.524,2.32,5.964,2.32c2.65,0,5.318-0.967,8.004-2.9s4.58-4.259,5.683-6.979
			c0.07-0.234,0.164-0.352,0.281-0.352c0.211,0,0.316,0.118,0.316,0.352c0,0.492-0.411,1.366-1.231,2.619
			c-0.821,1.254-1.665,2.303-2.533,3.146c-3.166,3.117-6.72,4.676-10.66,4.676c-2.674,0-4.82-0.82-6.439-2.461
			c-1.618-1.64-2.427-3.82-2.427-6.539c0-4.945,2.385-9.527,7.154-13.746c4.769-4.219,9.943-6.328,15.521-6.328
			c2.461,0,4.389,0.61,5.783,1.828c1.394,1.219,2.092,2.895,2.092,5.027c0,1.594-0.562,3.48-1.688,5.66
			c-1.008,1.992-1.512,3.34-1.512,4.043c0,1.735,1.033,2.602,3.099,2.602c2.347,0,4.777-1.74,7.289-5.22
			c0.211-0.281,0.387-0.422,0.528-0.422C61.467,48.542,61.561,48.636,61.561,48.824z M88.051,42.021
			c-6.117,0.305-11.79,2.062-17.016,5.273c-5.227,3.211-11.25,8.602-18.07,16.172H66.29c3-5.226,6.621-9.914,10.863-14.062
			C81.324,45.279,84.958,42.818,88.051,42.021z"/>
	</g>
	<g >
		<path d="M100.386,84.821c0,3.586-1.008,7.236-3.023,10.951c-2.016,3.715-4.805,7.072-8.367,10.072
			c-3.422,2.906-7.096,5.209-11.021,6.908c-3.926,1.699-7.529,2.549-10.811,2.549c-4.312,0-7.811-1.465-10.494-4.395
			c-2.684-2.93-4.025-6.75-4.025-11.461c0-4.312,1.336-8.707,4.008-13.184s6.281-8.332,10.828-11.566
			c3.234-2.343,6.873-4.242,10.916-5.695c4.043-1.453,7.693-2.18,10.951-2.18c3.234,0,5.818,0.786,7.752,2.355
			c1.934,1.57,2.9,3.668,2.9,6.293c0,1.078-0.188,2.355-0.562,3.832C100.069,81.153,100.386,82.993,100.386,84.821z M99.437,75.54
			c0-2.367-0.832-4.271-2.496-5.713c-1.665-1.441-3.855-2.162-6.574-2.162c-5.391,0-10.84,1.792-16.348,5.375
			c-5.273,3.443-9.598,7.857-12.973,13.244c-3.539,5.574-5.309,11.089-5.309,16.546c0,3.466,1.025,6.288,3.076,8.467
			c2.051,2.178,4.693,3.267,7.928,3.267c6.562,0,13.16-3.375,19.793-10.125c6.632-6.75,10.312-13.816,11.039-21.199
			c-0.797,1.406-2.221,3.064-4.271,4.975c-2.051,1.91-3.44,2.865-4.166,2.865c-0.188,0-0.281-0.094-0.281-0.281
			c0-0.117,0.188-0.281,0.562-0.492c3.797-2.109,6.539-4.898,8.227-8.367c0-2.93-0.856-5.256-2.566-6.979
			c-1.711-1.723-4.031-2.584-6.961-2.584c-5.438,0-11.021,2.9-16.752,8.701s-8.596,11.467-8.596,16.998
			c0,2.203,0.515,3.99,1.547,5.361c1.031,1.371,2.391,2.057,4.078,2.057c0.796,0,1.611-0.234,2.443-0.703
			c0.832-0.469,1.248-0.926,1.248-1.371c-0.023-0.141-0.07-0.211-0.141-0.211l-0.316,0.141c-0.281,0.281-0.738,0.422-1.371,0.422
			c-1.102,0-1.652-0.645-1.652-1.934c0-0.797,0.269-1.465,0.809-2.004c0.539-0.539,1.183-0.809,1.934-0.809
			c1.5,0,2.25,0.832,2.25,2.496c0,1.242-0.533,2.32-1.6,3.234c-1.067,0.914-2.315,1.371-3.744,1.371
			c-2.016,0-3.697-0.826-5.045-2.479c-1.348-1.652-2.021-3.721-2.021-6.205c0-5.719,2.982-11.42,8.947-17.104
			c5.964-5.683,11.936-8.525,17.912-8.525c2.554,0,4.839,0.604,6.855,1.811c2.016,1.208,3.387,2.783,4.113,4.729
			C99.296,77.415,99.437,76.478,99.437,75.54z"/>
	</g>
</g>
<g id="name" style="fill:none">
	<g>
		<path d="M168.595,43.228c0,0.281-0.164,0.422-0.492,0.422c-0.141,0-0.664-0.094-1.57-0.281c-1.672-0.344-3.062-0.516-4.172-0.516
			c-2.516,0.766-4.738,2.25-6.668,4.453s-4.129,5.773-6.598,10.711c-3.781,7.578-8.625,12.055-14.531,13.43
			c1.235,0.188,2.307,0.281,3.213,0.281c2.877,0,5.293-0.923,7.248-2.77c1.892-1.783,3.463-3.677,4.714-5.679
			c0.141-0.22,0.25-0.329,0.329-0.329c0.094,0,0.148,0.031,0.164,0.094c0,0.235-0.899,1.447-2.697,3.638
			c-1.673,2.05-3.197,3.462-4.573,4.235c-1.376,0.774-3.057,1.162-5.042,1.162c-1.141,0-2.533-0.164-4.174-0.492
			c-1,0.328-2.149,0.492-3.447,0.492c-0.907,0-1.36-0.164-1.36-0.492c0-0.375,0.609-0.562,1.828-0.562
			c0.859,0,1.852,0.078,2.977,0.234c2.422-0.578,4.254-1.531,5.496-2.859s3.637-4.922,7.184-10.781h-9.023
			c-3.828,4.031-6.789,6.898-8.883,8.602c-4.891,3.969-9.5,5.953-13.828,5.953c-2.469,0-4.566-0.578-6.293-1.734
			s-2.59-2.562-2.59-4.219c0-0.859,0.262-1.594,0.785-2.203s1.16-0.914,1.91-0.914c1.016,0,1.523,0.492,1.523,1.477
			c0,0.516-0.175,0.957-0.524,1.324c-0.35,0.367-0.757,0.551-1.223,0.551c-0.73,0-1.094-0.352-1.094-1.055l0.046-0.469
			c0.031-0.062,0.046-0.148,0.046-0.258c0-0.156-0.07-0.234-0.209-0.234c-0.155,0-0.311,0.195-0.466,0.586s-0.233,0.789-0.233,1.195
			c0,1.531,0.804,2.824,2.412,3.879c1.608,1.055,3.583,1.582,5.925,1.582c3.356,0,7.049-1.648,11.077-4.945
			c0.921-0.734,1.944-1.703,3.068-2.906c2.232-2.344,4.013-4.172,5.34-5.484l0.702-0.727h-4.547l0.281-0.422
			c1.5,0,3.039,0.016,4.617,0.047c4.578-5.094,9.02-8.816,13.324-11.168s8.855-3.543,13.652-3.574
			c1.109-0.219,2.148-0.328,3.117-0.328C167.509,42.173,168.595,42.524,168.595,43.228z M143.505,47.481
			c0,0.172-0.29,0.588-0.868,1.246c-1.596,1.833-3.106,2.75-4.53,2.75c-0.908,0-1.647-0.316-2.218-0.949s-0.856-1.465-0.856-2.496
			c0-0.875,0.516-2.289,1.547-4.242c0.484-0.906,0.727-1.656,0.727-2.25c0-0.781-0.434-1.449-1.301-2.004s-1.926-0.832-3.176-0.832
			c-3.578,0-6.895,1.375-9.949,4.125s-4.582,5.727-4.582,8.93c0,1.625,0.512,2.953,1.536,3.984s2.35,1.547,3.976,1.547
			c1.767,0,3.545-0.645,5.336-1.934s3.053-2.84,3.789-4.652c0.047-0.156,0.109-0.234,0.188-0.234c0.141,0,0.211,0.078,0.211,0.234
			c0,0.328-0.274,0.91-0.821,1.746c-0.547,0.836-1.11,1.535-1.688,2.098c-2.111,2.078-4.479,3.117-7.107,3.117
			c-1.783,0-3.213-0.547-4.292-1.641c-1.079-1.094-1.618-2.547-1.618-4.359c0-3.297,1.59-6.352,4.77-9.164s6.629-4.219,10.348-4.219
			c1.641,0,2.926,0.406,3.855,1.219s1.395,1.93,1.395,3.352c0,1.062-0.375,2.32-1.125,3.773c-0.672,1.328-1.008,2.227-1.008,2.695
			c0,1.156,0.688,1.734,2.066,1.734c1.565,0,3.185-1.16,4.859-3.48c0.141-0.188,0.258-0.282,0.353-0.282
			C143.442,47.294,143.505,47.356,143.505,47.481z M161.165,42.946c-4.078,0.203-7.859,1.375-11.344,3.516s-7.5,5.734-12.047,10.781
			h8.883c2-3.484,4.414-6.609,7.242-9.375C156.681,45.118,159.103,43.478,161.165,42.946z"/>
		<path d="M175.661,63.958c-0.016,0.047-0.094,0.172-0.234,0.376l-1.009,1.385c-2.941,4.084-5.116,6.126-6.523,6.126
			c-0.735,0-1.338-0.273-1.807-0.82c-0.47-0.547-0.704-1.25-0.704-2.109c0-0.875,0.297-1.82,0.891-2.836
			c0.109-0.188,0.68-1.023,1.711-2.508c1.312-1.875,1.969-3.102,1.969-3.68c0-0.641-0.32-0.961-0.961-0.961
			c-2.062,0-5.602,4.234-10.617,12.703c-0.312-0.062-0.742-0.094-1.289-0.094c-0.641,0-1.188,0.031-1.641,0.094l3.328-5.273
			c2.172-3.469,3.258-5.594,3.258-6.375c0-0.703-0.289-1.055-0.867-1.055c-0.859,0-2.266,1.234-4.219,3.703s-3.891,5.469-5.812,9
			c-0.359-0.062-0.82-0.094-1.383-0.094c-0.609,0-1.141,0.031-1.594,0.094l3.352-5.273c2.312-3.625,3.469-5.867,3.469-6.727
			c0-0.469-0.181-0.703-0.54-0.703c-0.768,0-2.356,1.676-4.768,5.027c-0.157,0.219-0.282,0.328-0.376,0.328
			c-0.062-0.016-0.094-0.062-0.094-0.141c0-0.141,0.72-1.114,2.159-2.923c1.408-1.762,2.497-2.643,3.264-2.643
			c0.5,0,0.931,0.238,1.291,0.715c0.359,0.477,0.54,1.043,0.54,1.699c0,0.906-0.461,2.164-1.383,3.773
			c2.812-4.125,4.906-6.188,6.281-6.188c0.656,0,1.195,0.266,1.617,0.797s0.633,1.195,0.633,1.992c0,0.891-0.414,2.023-1.242,3.398
			c2.969-4.125,5.195-6.188,6.68-6.188c0.672,0,1.238,0.289,1.699,0.867s0.691,1.281,0.691,2.109c0,0.969-0.383,2.102-1.148,3.398
			c-0.016,0.016-0.688,1.016-2.016,3c-0.766,1.125-1.148,1.984-1.148,2.578c0,0.641,0.32,0.961,0.963,0.961
			c1.22,0,3.238-1.972,6.055-5.915l0.728-1.01l0.423-0.517c0.078-0.156,0.156-0.234,0.234-0.234
			C175.614,63.817,175.661,63.864,175.661,63.958z"/>
		<path d="M192.185,63.958c0,0.329-1.142,1.847-3.426,4.554c-1.846,2.222-3.301,3.333-4.364,3.333c-0.72,0-1.307-0.27-1.76-0.809
			c-0.454-0.539-0.681-1.215-0.681-2.027c0-0.844,0.25-1.758,0.75-2.742c-1.562,2.188-2.758,3.664-3.586,4.43
			s-1.633,1.148-2.414,1.148c-0.828,0-1.523-0.355-2.086-1.066s-0.844-1.605-0.844-2.684c0-3,2.117-5.656,6.352-7.969
			c1.859-1.031,3.359-1.547,4.5-1.547c0.969,0,1.453,0.469,1.453,1.406c0,0.266-0.062,0.617-0.188,1.055l1.195-2.273
			c0.469,0.109,0.883,0.164,1.242,0.164c0.422,0,0.969-0.055,1.641-0.164l-4.148,6.867c-1.438,2.406-2.156,3.992-2.156,4.758
			c0,0.734,0.305,1.102,0.915,1.102c0.626,0,1.628-0.716,3.005-2.147c1.377-1.433,2.777-3.196,4.201-5.294
			c0.094-0.156,0.18-0.234,0.258-0.234C192.138,63.817,192.185,63.864,192.185,63.958z M185.728,60.079
			c0-0.766-0.352-1.148-1.055-1.148c-1.438,0-3.324,1.406-5.66,4.219s-3.504,5.086-3.504,6.82c0,1.016,0.453,1.523,1.359,1.523
			c1.078,0,2.945-1.789,5.602-5.367C184.642,63.188,185.728,61.173,185.728,60.079z"/>
		<path d="M211.005,63.958c0,0.329-1.134,1.847-3.402,4.554c-1.861,2.222-3.324,3.333-4.388,3.333c-0.704,0-1.295-0.273-1.771-0.82
			c-0.478-0.547-0.716-1.219-0.716-2.016c0-0.703,0.145-1.355,0.434-1.957s1.043-1.793,2.262-3.574
			c1.266-1.875,1.898-3.07,1.898-3.586c0-0.641-0.336-0.961-1.008-0.961c-2.281,0-5.797,4.234-10.547,12.703
			c-0.766-0.062-1.227-0.094-1.383-0.094c-0.547,0-1.062,0.031-1.547,0.094l3.656-5.789c2.078-3.312,3.117-5.383,3.117-6.211
			c0-0.469-0.196-0.703-0.587-0.703c-0.799,0-2.372,1.684-4.721,5.051c-0.142,0.203-0.251,0.312-0.329,0.328
			c-0.078,0-0.125-0.047-0.141-0.141c0.016-0.078,0.047-0.141,0.094-0.188l0.446-0.588c2.394-3.209,4.006-4.814,4.836-4.814
			c0.532,0,0.985,0.242,1.361,0.727s0.563,1.062,0.563,1.734c0,1-0.586,2.391-1.758,4.172c1.844-2.547,3.262-4.289,4.254-5.227
			s1.91-1.406,2.754-1.406c0.688,0,1.266,0.281,1.734,0.844s0.703,1.258,0.703,2.086c0,1.047-0.719,2.648-2.156,4.805
			c-1.469,2.203-2.203,3.609-2.203,4.219c0,0.641,0.32,0.961,0.963,0.961c1.392,0,3.794-2.48,7.205-7.441
			c0.078-0.156,0.156-0.234,0.234-0.234C210.958,63.817,211.005,63.864,211.005,63.958z"/>
		<path d="M232.274,47.587c-5.859,9.312-9.555,15.266-11.086,17.859c-1.547,2.641-2.32,4.305-2.32,4.992
			c0,0.703,0.32,1.055,0.963,1.055c1.424,0,3.841-2.48,7.252-7.441c0.094-0.156,0.18-0.234,0.258-0.234
			c0.094,0,0.141,0.047,0.141,0.141c-0.016,0.047-0.094,0.172-0.234,0.376l-1.009,1.385c-2.957,4.084-5.14,6.126-6.547,6.126
			c-0.72,0-1.307-0.27-1.76-0.809c-0.454-0.539-0.681-1.23-0.681-2.074s0.281-1.82,0.844-2.93c-2.734,3.875-4.766,5.812-6.094,5.812
			c-0.828,0-1.523-0.355-2.086-1.066s-0.844-1.605-0.844-2.684c0-2.578,1.602-4.914,4.805-7.008c2.547-1.672,4.547-2.508,6-2.508
			c0.969,0,1.453,0.469,1.453,1.406c0,0.438-0.133,0.93-0.398,1.477l8.367-14.016c0.516,0.156,1.023,0.234,1.523,0.234
			C230.946,47.681,231.431,47.649,232.274,47.587z M220.978,60.173c0-0.828-0.383-1.242-1.148-1.242
			c-1.406,0-3.262,1.402-5.566,4.207s-3.457,5.066-3.457,6.785c0,1.047,0.43,1.57,1.289,1.57c1.25,0,3.398-2.172,6.445-6.516
			C220.165,62.634,220.978,61.032,220.978,60.173z"/>
		<path d="M244.005,63.958c0,0.329-1.142,1.847-3.426,4.554c-1.846,2.222-3.301,3.333-4.364,3.333c-0.72,0-1.307-0.27-1.76-0.809
			c-0.454-0.539-0.681-1.215-0.681-2.027c0-0.844,0.25-1.758,0.75-2.742c-1.562,2.188-2.758,3.664-3.586,4.43
			s-1.633,1.148-2.414,1.148c-0.828,0-1.523-0.355-2.086-1.066s-0.844-1.605-0.844-2.684c0-3,2.117-5.656,6.352-7.969
			c1.859-1.031,3.359-1.547,4.5-1.547c0.969,0,1.453,0.469,1.453,1.406c0,0.266-0.062,0.617-0.188,1.055l1.195-2.273
			c0.469,0.109,0.883,0.164,1.242,0.164c0.422,0,0.969-0.055,1.641-0.164l-4.148,6.867c-1.438,2.406-2.156,3.992-2.156,4.758
			c0,0.734,0.305,1.102,0.915,1.102c0.626,0,1.628-0.716,3.005-2.147c1.377-1.433,2.777-3.196,4.201-5.294
			c0.094-0.156,0.18-0.234,0.258-0.234C243.958,63.817,244.005,63.864,244.005,63.958z M237.548,60.079
			c0-0.766-0.352-1.148-1.055-1.148c-1.438,0-3.324,1.406-5.66,4.219s-3.504,5.086-3.504,6.82c0,1.016,0.453,1.523,1.359,1.523
			c1.078,0,2.945-1.789,5.602-5.367C236.462,63.188,237.548,61.173,237.548,60.079z"/>
		<path d="M256.86,47.94c0,1.064-0.58,2.215-1.738,3.451c-0.438,0.47-1.019,0.939-1.738,1.409c-0.721,0.469-1.23,0.704-1.527,0.704
			c-0.094,0-0.141-0.047-0.141-0.141c0-0.078,0.062-0.141,0.188-0.188c1.711-0.642,2.566-1.346,2.566-2.113
			c0-0.094-0.078-0.141-0.234-0.141c-0.719,0-1.078-0.336-1.078-1.01c0-0.61,0.32-1.26,0.961-1.949s1.234-1.033,1.781-1.033
			C256.54,46.931,256.86,47.267,256.86,47.94z"/>
		<path d="M261.993,54.864c0,0.623-0.977,1.861-2.93,3.715c-0.094,0.484-0.141,0.906-0.141,1.266c0,0.906,0.414,2.344,1.242,4.312
			c0.422,0.984,0.633,1.812,0.633,2.484c0,1.406-0.684,2.625-2.051,3.656s-2.988,1.547-4.863,1.547c-1.062,0-1.91-0.301-2.543-0.902
			s-0.949-1.41-0.949-2.426c0-1.172,0.418-2.312,1.254-3.422s1.699-1.664,2.59-1.664c0.156,0,0.297,0.031,0.422,0.094l1.875-2.297
			c0.562-0.672,1.312-1.602,2.25-2.789c0.266-1.094,0.672-2.031,1.219-2.812s1.086-1.172,1.617-1.172
			C261.868,54.454,261.993,54.591,261.993,54.864z M258.735,64.11c0-0.469-0.016-0.934-0.047-1.395s-0.047-1.121-0.047-1.98
			c0-0.703,0.031-1.289,0.094-1.758c-0.875,1.109-2.141,2.672-3.797,4.688c0.297,0.25,0.445,0.555,0.445,0.914
			c0,0.922-0.758,1.547-2.273,1.875c-0.609,0.141-1.137,0.473-1.582,0.996s-0.668,1.074-0.668,1.652c0,0.625,0.227,1.148,0.68,1.57
			s1.016,0.633,1.688,0.633c1.312,0,2.559-0.762,3.738-2.285S258.735,65.86,258.735,64.11z"/>
		<path d="M145.181,92.579c0,2.391-0.672,4.824-2.016,7.301s-3.203,4.715-5.578,6.715c-2.281,1.938-4.73,3.473-7.348,4.605
			s-5.02,1.699-7.207,1.699c-2.875,0-5.207-0.977-6.996-2.93s-2.684-4.5-2.684-7.641c0-2.875,0.891-5.805,2.672-8.789
			s4.188-5.555,7.219-7.711c2.156-1.562,4.582-2.828,7.277-3.797s5.129-1.453,7.301-1.453c2.156,0,3.879,0.523,5.168,1.57
			s1.934,2.445,1.934,4.195c0,0.719-0.125,1.57-0.375,2.555C144.97,90.134,145.181,91.36,145.181,92.579z M144.548,86.392
			c0-1.578-0.555-2.848-1.664-3.809s-2.57-1.441-4.383-1.441c-3.594,0-7.227,1.194-10.898,3.583
			c-3.516,2.296-6.398,5.238-8.648,8.83c-2.359,3.716-3.539,7.393-3.539,11.03c0,2.311,0.684,4.192,2.051,5.645
			c1.367,1.451,3.129,2.178,5.285,2.178c4.375,0,8.773-2.25,13.195-6.75s6.875-9.211,7.359-14.133
			c-0.531,0.938-1.48,2.043-2.848,3.316s-2.293,1.91-2.777,1.91c-0.125,0-0.188-0.062-0.188-0.188c0-0.078,0.125-0.188,0.375-0.328
			c2.531-1.406,4.359-3.266,5.484-5.578c0-1.953-0.57-3.504-1.711-4.652s-2.688-1.723-4.641-1.723
			c-3.625,0-7.348,1.934-11.168,5.801s-5.73,7.645-5.73,11.332c0,1.469,0.344,2.66,1.031,3.574s1.594,1.371,2.719,1.371
			c0.531,0,1.074-0.156,1.629-0.469s0.832-0.617,0.832-0.914c-0.016-0.094-0.047-0.141-0.094-0.141l-0.211,0.094
			c-0.188,0.188-0.492,0.281-0.914,0.281c-0.734,0-1.102-0.43-1.102-1.289c0-0.531,0.18-0.977,0.539-1.336s0.789-0.539,1.289-0.539
			c1,0,1.5,0.555,1.5,1.664c0,0.828-0.355,1.547-1.066,2.156s-1.543,0.914-2.496,0.914c-1.344,0-2.465-0.551-3.363-1.652
			s-1.348-2.48-1.348-4.137c0-3.812,1.988-7.613,5.965-11.402s7.957-5.684,11.941-5.684c1.703,0,3.227,0.402,4.57,1.207
			s2.258,1.855,2.742,3.152C144.454,87.642,144.548,87.017,144.548,86.392z"/>
		<path d="M157.427,103.958c0,0.126-0.47,0.697-1.408,1.717c-1.19,1.316-2.31,1.975-3.358,1.975c-1.189,0-1.784-0.688-1.784-2.062
			c0-0.438,0.094-0.992,0.281-1.664c-0.984,0.859-1.785,1.711-2.402,2.555s-1.684,2.562-3.199,5.156
			c-0.828-0.062-1.312-0.094-1.453-0.094c-0.062,0-0.539,0.031-1.43,0.094l3.844-6.234c1.922-3.125,2.883-5.062,2.883-5.812
			c0-0.438-0.18-0.656-0.54-0.656c-0.877,0-2.466,1.684-4.768,5.051c-0.141,0.219-0.267,0.328-0.376,0.328
			c-0.062-0.016-0.094-0.062-0.094-0.141c0.016-0.078,0.047-0.141,0.094-0.188l0.423-0.588c2.41-3.209,4.045-4.814,4.906-4.814
			c1.252,0,1.878,0.805,1.878,2.414c0,1.203-0.641,2.797-1.922,4.781c0.812-0.938,1.586-1.703,2.32-2.297
			c0.594-1.391,1.332-2.555,2.215-3.492s1.676-1.406,2.379-1.406c0.484,0,0.727,0.211,0.727,0.633c0,0.75-1.086,1.82-3.258,3.211
			c-0.344,0.219-0.859,0.539-1.547,0.961l-0.281,0.234c-0.219,0.719-0.328,1.312-0.328,1.781c0,1.312,0.493,1.969,1.479,1.969
			c1.221,0,2.551-1.011,3.992-3.033c0.312-0.345,0.509-0.518,0.587-0.518C157.38,103.817,157.427,103.864,157.427,103.958z"/>
		<path d="M169.028,103.958c0,0.203-1.103,1.518-3.308,3.943c-2.408,2.629-4.457,3.943-6.146,3.943
			c-1.095,0-2.033-0.418-2.815-1.254s-1.173-1.832-1.173-2.988c0-1.312,0.531-2.672,1.594-4.078s2.492-2.617,4.289-3.633
			c1.516-0.875,2.75-1.312,3.703-1.312c1.156,0,1.734,0.688,1.734,2.062c0,1.078-0.363,2.156-1.09,3.234s-1.449,1.617-2.168,1.617
			c-0.703,0-1.055-0.352-1.055-1.055c0-0.828,0.719-1.594,2.156-2.297c1.109-0.547,1.664-1.266,1.664-2.156
			c0-0.703-0.383-1.055-1.148-1.055c-1.297,0-2.891,1.289-4.781,3.867s-2.836,4.742-2.836,6.492c0,1.469,0.688,2.203,2.064,2.203
			c2.159,0,5.084-2.434,8.775-7.301c0.203-0.25,0.352-0.375,0.445-0.375C168.997,103.833,169.028,103.88,169.028,103.958z"/>
		<path d="M184.005,103.911c0,0.125-0.078,0.267-0.234,0.423l-1.01,1.385c-2.94,4.084-5.13,6.126-6.569,6.126
			c-0.751,0-1.365-0.27-1.842-0.809c-0.478-0.539-0.716-1.215-0.716-2.027c0-1.094,0.594-2.523,1.781-4.289
			c1.859-2.734,2.789-4.359,2.789-4.875c0-0.609-0.32-0.914-0.961-0.914c-0.938,0-2.219,0.922-3.844,2.766
			c-1.562,1.766-3.711,5.109-6.445,10.031c-0.469-0.094-0.867-0.141-1.195-0.141c-0.344,0-0.805,0.047-1.383,0.141l3.445-6.234
			c0.469-0.891,1.188-2.203,2.156-3.938c0.516-0.844,2.102-3.531,4.758-8.062l3.562-6.047c0.469,0.094,0.867,0.141,1.195,0.141
			c0.625,0,1.219-0.078,1.781-0.234c-1.625,2.609-4.047,6.516-7.266,11.719c-0.094,0.156-1.305,2.172-3.633,6.047
			c2.938-4.359,5.258-6.539,6.961-6.539c0.672,0,1.246,0.289,1.723,0.867s0.715,1.281,0.715,2.109c0,1.078-0.688,2.633-2.062,4.664
			c-1.531,2.266-2.297,3.688-2.297,4.266c0,0.672,0.336,1.008,1.01,1.008c1.22,0,3.238-1.972,6.055-5.915l0.728-1.01l0.423-0.517
			c0.078-0.156,0.172-0.234,0.281-0.234C183.974,103.817,184.005,103.849,184.005,103.911z"/>
		<path d="M192.067,103.958c-0.016,0.047-0.094,0.172-0.234,0.376l-1.009,1.385c-2.941,4.084-5.187,6.126-6.734,6.126
			c-0.735,0-1.349-0.262-1.842-0.785s-0.739-1.176-0.739-1.957c0-0.906,0.539-2.281,1.617-4.125l3.656-6.211
			c0.484,0.109,0.867,0.164,1.148,0.164c0.422,0,1.016-0.055,1.781-0.164l-5.32,8.742c-0.766,1.266-1.148,2.242-1.148,2.93
			c0,0.703,0.367,1.055,1.104,1.055c1.392,0,3.841-2.48,7.346-7.441c0.078-0.156,0.156-0.234,0.234-0.234
			C192.021,103.817,192.067,103.864,192.067,103.958z M191.728,94.267c0,0.547-0.23,1.059-0.691,1.535s-0.965,0.715-1.512,0.715
			c-0.703,0-1.055-0.352-1.055-1.055c0-0.516,0.242-1.012,0.727-1.488s0.992-0.715,1.523-0.715
			C191.392,93.259,191.728,93.595,191.728,94.267z"/>
		<path d="M213.384,87.587c-5.859,9.312-9.555,15.266-11.086,17.859c-1.547,2.641-2.32,4.305-2.32,4.992
			c0,0.703,0.32,1.055,0.963,1.055c1.424,0,3.841-2.48,7.252-7.441c0.094-0.156,0.18-0.234,0.258-0.234
			c0.094,0,0.141,0.047,0.141,0.141c-0.016,0.047-0.094,0.172-0.234,0.376l-1.009,1.385c-2.957,4.084-5.14,6.126-6.547,6.126
			c-0.72,0-1.307-0.27-1.76-0.809c-0.454-0.539-0.681-1.23-0.681-2.074s0.281-1.82,0.844-2.93c-2.734,3.875-4.766,5.812-6.094,5.812
			c-0.828,0-1.523-0.355-2.086-1.066s-0.844-1.605-0.844-2.684c0-2.578,1.602-4.914,4.805-7.008c2.547-1.672,4.547-2.508,6-2.508
			c0.969,0,1.453,0.469,1.453,1.406c0,0.438-0.133,0.93-0.398,1.477l8.367-14.016c0.516,0.156,1.023,0.234,1.523,0.234
			C212.056,87.681,212.54,87.649,213.384,87.587z M202.087,100.173c0-0.828-0.383-1.242-1.148-1.242
			c-1.406,0-3.262,1.402-5.566,4.207s-3.457,5.066-3.457,6.785c0,1.047,0.43,1.57,1.289,1.57c1.25,0,3.398-2.172,6.445-6.516
			C201.274,102.634,202.087,101.032,202.087,100.173z"/>
		<path d="M260.47,80.673c0,0.75-0.754,1.832-2.262,3.246s-3.348,2.77-5.52,4.066c-0.281,0.891-0.695,2.508-1.242,4.852
			c-0.875,3.672-1.68,6.277-2.414,7.816s-1.945,3.105-3.633,4.699c-4.875,4.609-10.336,6.914-16.383,6.914
			c-1.734,0-3.266-0.289-4.594-0.867c-0.734,1.439-1.102,2.691-1.102,3.756c0,1.346,0.449,2.582,1.348,3.709
			c0.094,0.094,0.141,0.203,0.141,0.328s-0.078,0.188-0.234,0.188c-0.361,0-0.751-0.485-1.168-1.455
			c-0.417-0.971-0.625-1.878-0.625-2.723c0-1.221,0.398-2.566,1.195-4.037c-3.266-1.688-4.898-4.586-4.898-8.695
			c0-2.641,0.781-5.266,2.344-7.875s3.758-4.961,6.586-7.055c3.609-2.656,7.18-3.984,10.711-3.984c1.922,0,3.449,0.539,4.582,1.617
			s1.699,2.539,1.699,4.383c0,0.984-0.141,2.008-0.422,3.07c2.297-1.531,4.328-2.828,6.094-3.891
			c1.125-2.453,2.539-4.562,4.242-6.328s3.188-2.648,4.453-2.648C260.103,79.759,260.47,80.063,260.47,80.673z M244.579,89.462
			c0-1.641-0.52-2.961-1.559-3.961s-2.41-1.5-4.113-1.5c-4.203,0-8.27,2.188-12.199,6.562s-5.895,8.906-5.895,13.594
			c0,3.078,1.133,5.266,3.398,6.562c1.062-1.75,2.586-3.664,4.57-5.742c-1.031-0.891-1.547-1.953-1.547-3.188
			c0-0.938,0.297-1.738,0.891-2.402s1.312-0.996,2.156-0.996c1.047,0,1.57,0.484,1.57,1.453c0,0.5-0.195,0.934-0.586,1.301
			s-0.852,0.551-1.383,0.551c-0.766,0-1.148-0.367-1.148-1.102c0-0.234,0.078-0.484,0.234-0.75c0.062-0.203,0.094-0.32,0.094-0.352
			c0-0.094-0.047-0.141-0.141-0.141c-0.266,0-0.539,0.281-0.82,0.844s-0.422,1.117-0.422,1.664c0,1.031,0.477,1.953,1.43,2.766
			c3.141-3.312,8.102-7.18,14.883-11.602C244.384,91.649,244.579,90.462,244.579,89.462z M250.392,89.368
			c-1.828,1.156-3.828,2.469-6,3.938c-1.031,3.312-2.84,6.219-5.426,8.719s-5.066,3.75-7.441,3.75c-0.719,0-1.508-0.188-2.367-0.562
			c-1.766,1.828-3.266,3.75-4.5,5.766c1.281,0.578,2.734,0.867,4.359,0.867c2.938,0,5.781-0.832,8.531-2.496
			s5.109-3.973,7.078-6.926c0.922-1.375,1.648-2.652,2.18-3.832s1.391-3.402,2.578-6.668
			C249.665,91.11,250.001,90.259,250.392,89.368z M243.759,93.681l-1.547,1.055c-5.891,4.062-10.141,7.445-12.75,10.148
			c0.656,0.344,1.359,0.516,2.109,0.516c2.188,0,4.477-1.148,6.867-3.445S242.603,96.899,243.759,93.681z M260.024,80.72
			c0-0.375-0.219-0.562-0.656-0.562c-1.047,0-2.215,0.723-3.504,2.168s-2.285,3.137-2.988,5.074c2.062-1.266,3.77-2.531,5.121-3.797
			S260.024,81.376,260.024,80.72z"/>
		<path d="M266.036,103.911c0,0.125-0.078,0.267-0.234,0.423l-1.01,1.385c-2.94,4.084-5.13,6.126-6.569,6.126
			c-0.751,0-1.365-0.27-1.842-0.809c-0.478-0.539-0.716-1.215-0.716-2.027c0-1.094,0.594-2.523,1.781-4.289
			c1.859-2.734,2.789-4.359,2.789-4.875c0-0.609-0.32-0.914-0.961-0.914c-0.938,0-2.219,0.922-3.844,2.766
			c-1.562,1.766-3.711,5.109-6.445,10.031c-0.469-0.094-0.867-0.141-1.195-0.141c-0.344,0-0.805,0.047-1.383,0.141l3.445-6.234
			c0.469-0.891,1.188-2.203,2.156-3.938c0.516-0.844,2.102-3.531,4.758-8.062l3.562-6.047c0.469,0.094,0.867,0.141,1.195,0.141
			c0.625,0,1.219-0.078,1.781-0.234c-1.625,2.609-4.047,6.516-7.266,11.719c-0.094,0.156-1.305,2.172-3.633,6.047
			c2.938-4.359,5.258-6.539,6.961-6.539c0.672,0,1.246,0.289,1.723,0.867s0.715,1.281,0.715,2.109c0,1.078-0.688,2.633-2.062,4.664
			c-1.531,2.266-2.297,3.688-2.297,4.266c0,0.672,0.336,1.008,1.01,1.008c1.22,0,3.238-1.972,6.055-5.915l0.728-1.01l0.423-0.517
			c0.078-0.156,0.172-0.234,0.281-0.234C266.005,103.817,266.036,103.849,266.036,103.911z"/>
		<path d="M279.958,103.935c0,0.249-0.461,0.834-1.384,1.752c-1.376,1.371-2.643,2.057-3.8,2.057c-0.484,0-0.915-0.094-1.29-0.281
			c-2.063,2.922-4.003,4.383-5.816,4.383c-0.938,0-1.74-0.387-2.404-1.16c-0.665-0.773-0.997-1.699-0.997-2.777
			c0-2.406,1.578-4.727,4.734-6.961c2.219-1.578,4.047-2.367,5.484-2.367c1.344,0,2.016,0.719,2.016,2.156
			c0,1.797-0.945,3.961-2.836,6.492c0.312,0.188,0.664,0.281,1.055,0.281c0.703,0,1.524-0.327,2.465-0.981
			c0.939-0.653,1.707-1.44,2.303-2.359c0.173-0.218,0.299-0.327,0.377-0.327C279.927,103.841,279.958,103.872,279.958,103.935z
			 M276.149,100.782c0-1.266-0.57-1.898-1.711-1.898c-1.422,0-3.156,1.359-5.203,4.078s-3.07,5.008-3.07,6.867
			c0,1.078,0.516,1.617,1.547,1.617c1.688,0,3.531-1.391,5.531-4.172c-0.453-0.5-0.68-1.016-0.68-1.547
			c0-0.766,0.305-1.555,0.914-2.367s1.203-1.219,1.781-1.219c0.25,0,0.422,0.156,0.516,0.469
			C276.024,102.063,276.149,101.454,276.149,100.782z"/>
		<path d="M291.149,102.329c0,2.547-1.586,4.867-4.758,6.961c-2.578,1.703-4.594,2.555-6.047,2.555c-1,0-1.5-0.469-1.5-1.406
			c0-0.281,0.078-0.664,0.234-1.148l-8.977,14.977c-0.547-0.125-0.992-0.188-1.336-0.188c-0.516,0-1.023,0.094-1.523,0.281
			l19.242-31.641c0.422,0.141,0.836,0.211,1.242,0.211c0.422,0,0.938-0.07,1.547-0.211l-6.961,11.25
			c1.672-2.219,2.887-3.672,3.645-4.359s1.512-1.031,2.262-1.031c0.828,0,1.523,0.359,2.086,1.078S291.149,101.267,291.149,102.329z
			 M289.415,100.454c0-1.016-0.453-1.523-1.359-1.523c-1.141,0-3.055,1.836-5.742,5.508c-2.078,2.844-3.117,4.797-3.117,5.859
			c0,0.797,0.367,1.195,1.102,1.195c1.438,0,3.316-1.402,5.637-4.207S289.415,102.204,289.415,100.454z"/>
	</g>
</g>
</svg>
