<?xml version="1.0" encoding="utf-8"?>
<!-- Generator: Adobe Illustrator 16.0.4, SVG Export Plug-In . SVG Version: 6.00 Build 0)  -->
<!DOCTYPE svg PUBLIC "-//W3C//DTD SVG 1.1//EN" "http://www.w3.org/Graphics/SVG/1.1/DTD/svg11.dtd">
<svg version="1.1" id="logo" xmlns="http://www.w3.org/2000/svg" xmlns:xlink="http://www.w3.org/1999/xlink" x="0px" y="0px"
	 width="97.983px" height="83.285px" viewBox="0 0 97.983 83.285" enable-background="new 0 0 97.983 83.285" xml:space="preserve">
<g id="svg_logo" style="fill:#992e38; stroke:#e1c674; stroke-width:.7;">
	<path d="M95.294,8.993c0,0.422-0.246,0.633-0.738,0.633c-0.211,0-0.997-0.141-2.355-0.422c-2.508-0.515-4.594-0.773-6.258-0.773
		c-3.774,1.148-7.107,3.375-10.002,6.68c-2.895,3.305-6.193,8.661-9.896,16.066c-5.672,11.368-12.938,18.083-21.797,20.145
		c1.853,0.281,3.459,0.422,4.82,0.422c4.315,0,7.939-1.385,10.872-4.154c2.837-2.676,5.195-5.515,7.071-8.52
		c0.211-0.329,0.375-0.493,0.493-0.493c0.141,0,0.223,0.047,0.246,0.141c0,0.352-1.349,2.171-4.045,5.457
		c-2.51,3.074-4.796,5.192-6.859,6.354c-2.064,1.16-4.585,1.742-7.562,1.742c-1.712,0-3.8-0.246-6.262-0.738
		c-1.501,0.492-3.225,0.738-5.171,0.738c-1.36,0-2.04-0.246-2.04-0.738c0-0.562,0.914-0.844,2.742-0.844
		c1.289,0,2.777,0.117,4.465,0.352c3.633-0.867,6.381-2.297,8.244-4.289s5.455-7.383,10.775-16.172H48.501
		c-5.743,6.047-10.184,10.348-13.324,12.903c-7.336,5.953-14.25,8.93-20.742,8.93c-3.704,0-6.85-0.867-9.439-2.602
		c-2.59-1.734-3.885-3.844-3.885-6.328c0-1.289,0.392-2.391,1.178-3.305c0.785-0.914,1.74-1.371,2.865-1.371
		c1.523,0,2.285,0.738,2.285,2.215c0,0.773-0.262,1.436-0.786,1.987s-1.135,0.826-1.833,0.826c-1.095,0-1.642-0.527-1.642-1.583
		l0.07-0.703c0.046-0.093,0.07-0.223,0.07-0.387c0-0.234-0.105-0.352-0.314-0.352c-0.232,0-0.466,0.293-0.698,0.879
		c-0.233,0.586-0.35,1.184-0.35,1.793c0,2.297,1.206,4.236,3.618,5.818s5.375,2.373,8.888,2.373c5.035,0,10.573-2.473,16.615-7.418
		c1.382-1.102,2.916-2.555,4.603-4.36c3.349-3.516,6.018-6.258,8.009-8.227l1.054-1.09h-6.82l0.422-0.633
		c2.25,0,4.558,0.023,6.926,0.07c6.867-7.641,13.529-13.224,19.986-16.752c6.457-3.527,13.283-5.314,20.479-5.361
		c1.664-0.328,3.222-0.492,4.676-0.492C93.665,7.411,95.294,7.938,95.294,8.993z M57.659,15.374c0,0.259-0.435,0.882-1.302,1.869
		c-2.394,2.75-4.659,4.125-6.794,4.125c-1.361,0-2.471-0.475-3.328-1.424S44.95,17.747,44.95,16.2c0-1.312,0.773-3.433,2.32-6.363
		c0.726-1.359,1.09-2.484,1.09-3.375c0-1.172-0.65-2.174-1.951-3.006c-1.301-0.832-2.889-1.248-4.764-1.248
		c-5.367,0-10.342,2.062-14.924,6.188c-4.583,4.125-6.873,8.59-6.873,13.395c0,2.438,0.768,4.43,2.304,5.977
		c1.537,1.547,3.524,2.32,5.964,2.32c2.65,0,5.318-0.967,8.004-2.9s4.58-4.259,5.683-6.979c0.07-0.234,0.164-0.352,0.281-0.352
		c0.211,0,0.316,0.118,0.316,0.352c0,0.492-0.411,1.366-1.231,2.619c-0.821,1.254-1.665,2.303-2.533,3.146
		c-3.166,3.117-6.72,4.676-10.66,4.676c-2.674,0-4.82-0.82-6.439-2.461c-1.618-1.64-2.427-3.82-2.427-6.539
		c0-4.945,2.385-9.527,7.154-13.746c4.769-4.219,9.943-6.328,15.521-6.328c2.461,0,4.389,0.61,5.783,1.828
		c1.394,1.219,2.092,2.895,2.092,5.027c0,1.594-0.562,3.48-1.688,5.66c-1.008,1.992-1.512,3.34-1.512,4.043
		c0,1.735,1.033,2.602,3.099,2.602c2.347,0,4.777-1.74,7.289-5.22c0.211-0.281,0.387-0.422,0.528-0.422
		C57.565,15.093,57.659,15.187,57.659,15.374z M84.149,8.571c-6.117,0.305-11.79,2.062-17.016,5.273
		c-5.227,3.211-11.25,8.602-18.07,16.172h13.324c3-5.226,6.621-9.914,10.863-14.062C77.422,11.829,81.056,9.368,84.149,8.571z"/>
</g>
<g style="fill:#992e38; stroke:#e1c674; stroke-width:.7;">
	<path d="M96.484,51.372c0,3.586-1.008,7.236-3.023,10.951c-2.016,3.715-4.805,7.072-8.367,10.072
		c-3.422,2.906-7.096,5.209-11.021,6.908c-3.926,1.699-7.529,2.549-10.811,2.549c-4.312,0-7.811-1.465-10.494-4.395
		c-2.684-2.93-4.025-6.75-4.025-11.461c0-4.312,1.336-8.707,4.008-13.184s6.281-8.332,10.828-11.566
		c3.234-2.343,6.873-4.242,10.916-5.695c4.043-1.453,7.693-2.18,10.951-2.18c3.234,0,5.818,0.786,7.752,2.355
		c1.934,1.57,2.9,3.668,2.9,6.293c0,1.078-0.188,2.355-0.562,3.832C96.167,47.704,96.484,49.543,96.484,51.372z M95.535,42.09
		c0-2.367-0.832-4.271-2.496-5.713c-1.665-1.441-3.855-2.162-6.574-2.162c-5.391,0-10.84,1.792-16.348,5.375
		c-5.273,3.443-9.598,7.857-12.973,13.244c-3.539,5.574-5.309,11.089-5.309,16.546c0,3.466,1.025,6.288,3.076,8.467
		c2.051,2.178,4.693,3.267,7.928,3.267c6.562,0,13.16-3.375,19.793-10.125c6.632-6.75,10.312-13.816,11.039-21.199
		c-0.797,1.406-2.221,3.064-4.271,4.975c-2.051,1.91-3.44,2.865-4.166,2.865c-0.188,0-0.281-0.094-0.281-0.281
		c0-0.117,0.188-0.281,0.562-0.492c3.797-2.109,6.539-4.898,8.227-8.367c0-2.93-0.856-5.256-2.566-6.979
		c-1.711-1.723-4.031-2.584-6.961-2.584c-5.438,0-11.021,2.9-16.752,8.701s-8.596,11.467-8.596,16.998
		c0,2.203,0.515,3.99,1.547,5.361c1.031,1.371,2.391,2.057,4.078,2.057c0.796,0,1.611-0.234,2.443-0.703
		c0.832-0.469,1.248-0.926,1.248-1.371c-0.023-0.141-0.07-0.211-0.141-0.211l-0.316,0.141c-0.281,0.281-0.738,0.422-1.371,0.422
		c-1.102,0-1.652-0.645-1.652-1.934c0-0.797,0.269-1.465,0.809-2.004c0.539-0.539,1.183-0.809,1.934-0.809
		c1.5,0,2.25,0.832,2.25,2.496c0,1.242-0.533,2.32-1.6,3.234c-1.067,0.914-2.315,1.371-3.744,1.371
		c-2.016,0-3.697-0.826-5.045-2.479c-1.348-1.652-2.021-3.721-2.021-6.205c0-5.719,2.982-11.42,8.947-17.104
		c5.964-5.683,11.936-8.525,17.912-8.525c2.554,0,4.839,0.604,6.855,1.811c2.016,1.208,3.387,2.783,4.113,4.729
		C95.394,43.965,95.535,43.028,95.535,42.09z"/>
</g>
</svg>
