<?xml version="1.0" encoding="utf-8"?>
<!-- Generator: Adobe Illustrator 16.0.4, SVG Export Plug-In . SVG Version: 6.00 Build 0)  -->
<!DOCTYPE svg PUBLIC "-//W3C//DTD SVG 1.1//EN" "http://www.w3.org/Graphics/SVG/1.1/DTD/svg11.dtd">
<svg version="1.1" id="logo" xmlns="http://www.w3.org/2000/svg" xmlns:xlink="http://www.w3.org/1999/xlink" x="0px" y="0px"
	 width="120px" height="102.009px" viewBox="-6.11 -5.194 120 102.009" enable-background="new -6.11 -5.194 120 102.009"
	 xml:space="preserve">
<g id="svg_logo">
	<path fill="#992E38" stroke="#E1C674" stroke-width="0.7" d="M109.858,6.499c0,0.509-0.296,0.762-0.889,0.762
		c-0.255,0-1.201-0.169-2.837-0.508c-3.022-0.62-5.537-0.932-7.541-0.932c-4.547,1.383-8.562,4.066-12.053,8.048
		c-3.487,3.982-7.461,10.435-11.922,19.357c-6.834,13.697-15.588,21.789-26.262,24.272c2.232,0.34,4.167,0.509,5.807,0.509
		c5.199,0,9.565-1.668,13.099-5.005c3.418-3.224,6.26-6.645,8.52-10.265c0.254-0.396,0.452-0.594,0.595-0.594
		c0.168,0,0.268,0.057,0.297,0.168c0,0.425-1.625,2.617-4.873,6.575c-3.026,3.705-5.778,6.256-8.266,7.657
		c-2.485,1.396-5.523,2.099-9.108,2.099c-2.065,0-4.581-0.298-7.548-0.89c-1.807,0.592-3.885,0.89-6.23,0.89
		c-1.638,0-2.458-0.298-2.458-0.89c0-0.679,1.102-1.019,3.304-1.019c1.553,0,3.347,0.141,5.379,0.425
		c4.377-1.045,7.689-2.768,9.933-5.168c2.243-2.401,6.572-8.896,12.983-19.485h-16.31c-6.92,7.285-12.271,12.468-16.054,15.545
		c-8.837,7.172-17.169,10.76-24.99,10.76c-4.462,0-8.252-1.045-11.372-3.136c-3.123-2.089-4.682-4.631-4.682-7.624
		c0-1.554,0.473-2.881,1.419-3.982c0.947-1.101,2.097-1.652,3.452-1.652c1.835,0,2.753,0.89,2.753,2.669
		c0,0.931-0.315,1.73-0.948,2.394c-0.63,0.664-1.367,0.994-2.208,0.994c-1.32,0-1.979-0.634-1.979-1.906l0.084-0.847
		c0.056-0.112,0.083-0.269,0.083-0.466c0-0.282-0.126-0.425-0.378-0.425c-0.28,0-0.562,0.353-0.843,1.06
		c-0.28,0.708-0.421,1.427-0.421,2.162c0,2.767,1.454,5.103,4.36,7.009c2.904,1.906,6.476,2.858,10.707,2.858
		c6.067,0,12.741-2.979,20.019-8.938c1.667-1.329,3.514-3.078,5.546-5.253c4.035-4.235,7.25-7.539,9.649-9.913l1.271-1.312h-8.218
		l0.509-0.763c2.71,0,5.491,0.027,8.344,0.086c8.277-9.207,16.304-15.933,24.083-20.184c7.782-4.25,16.006-6.402,24.674-6.459
		c2.006-0.394,3.883-0.593,5.636-0.593C107.895,4.591,109.858,5.228,109.858,6.499z M64.513,14.187c0,0.311-0.524,1.062-1.569,2.251
		c-2.884,3.313-5.613,4.971-8.187,4.971c-1.639,0-2.977-0.572-4.01-1.716c-1.03-1.143-1.546-2.646-1.546-4.511
		c0-1.579,0.932-4.136,2.795-7.666c0.876-1.638,1.312-2.993,1.312-4.067c0-1.412-0.782-2.619-2.35-3.623
		c-1.569-1.002-3.482-1.503-5.741-1.503c-6.466,0-12.46,2.484-17.981,7.456c-5.521,4.97-8.281,10.349-8.281,16.139
		c0,2.938,0.926,5.337,2.775,7.202c1.853,1.863,4.247,2.795,7.188,2.795c3.192,0,6.407-1.164,9.644-3.494
		c3.235-2.329,5.518-5.132,6.847-8.409c0.084-0.282,0.198-0.425,0.339-0.425c0.254,0,0.381,0.144,0.381,0.425
		c0,0.593-0.495,1.646-1.482,3.155c-0.989,1.512-2.007,2.775-3.053,3.791c-3.814,3.755-8.097,5.634-12.844,5.634
		c-3.221,0-5.807-0.988-7.758-2.965c-1.948-1.977-2.924-4.603-2.924-7.878c0-5.958,2.874-11.478,8.619-16.562
		c5.747-5.083,11.98-7.624,18.702-7.624c2.965,0,5.287,0.735,6.966,2.203c1.68,1.468,2.522,3.488,2.522,6.056
		c0,1.921-0.678,4.193-2.035,6.819c-1.214,2.4-1.821,4.025-1.821,4.871c0,2.091,1.244,3.135,3.733,3.135
		c2.828,0,5.756-2.095,8.781-6.289c0.255-0.339,0.468-0.509,0.637-0.509C64.4,13.848,64.513,13.961,64.513,14.187z M96.43,5.99
		c-7.369,0.367-14.205,2.484-20.501,6.353c-6.299,3.87-13.555,10.365-21.773,19.486H70.21c3.614-6.297,7.977-11.945,13.087-16.944
		C88.324,9.916,92.701,6.951,96.43,5.99z"/>
</g>
<g>
	<path fill="#992E38" stroke="#E1C674" stroke-width="0.7" d="M111.291,57.558c0,4.321-1.214,8.718-3.641,13.195
		c-2.431,4.477-5.792,8.521-10.082,12.134c-4.123,3.503-8.55,6.276-13.278,8.324c-4.73,2.048-9.072,3.072-13.026,3.072
		c-5.194,0-9.411-1.765-12.644-5.295c-3.233-3.53-4.851-8.134-4.851-13.809c0-5.195,1.611-10.49,4.829-15.885
		c3.219-5.396,7.568-10.039,13.047-13.936c3.896-2.823,8.281-5.11,13.151-6.862c4.871-1.75,9.269-2.625,13.194-2.625
		c3.897,0,7.011,0.946,9.341,2.837c2.33,1.893,3.494,4.42,3.494,7.583c0,1.3-0.228,2.838-0.678,4.619
		C110.91,53.141,111.291,55.355,111.291,57.558z M110.149,46.375c0-2.852-1.002-5.146-3.008-6.883
		c-2.006-1.736-4.645-2.606-7.921-2.606c-6.494,0-13.061,2.16-19.695,6.477c-6.354,4.147-11.566,9.467-15.632,15.956
		c-4.265,6.717-6.396,13.36-6.396,19.936c0,4.176,1.234,7.576,3.706,10.202c2.472,2.624,5.654,3.937,9.554,3.937
		c7.905,0,15.855-4.067,23.847-12.201c7.99-8.131,12.424-16.646,13.301-25.541c-0.96,1.693-2.675,3.69-5.146,5.996
		c-2.472,2.301-4.146,3.45-5.021,3.45c-0.226,0-0.339-0.114-0.339-0.339c0-0.142,0.227-0.339,0.677-0.593
		c4.575-2.541,7.878-5.902,9.913-10.08c0-3.531-1.03-6.333-3.091-8.41c-2.062-2.076-4.858-3.113-8.387-3.113
		c-6.553,0-13.28,3.494-20.185,10.483C69.42,60.037,65.97,66.862,65.97,73.526c0,2.655,0.619,4.809,1.864,6.458
		c1.241,1.652,2.88,2.48,4.912,2.48c0.96,0,1.94-0.282,2.943-0.848c1.003-0.564,1.504-1.116,1.504-1.651
		c-0.026-0.17-0.084-0.255-0.169-0.255l-0.382,0.169c-0.34,0.341-0.89,0.511-1.652,0.511c-1.327,0-1.988-0.777-1.988-2.33
		c0-0.961,0.323-1.766,0.975-2.416c0.649-0.648,1.425-0.974,2.329-0.974c1.807,0,2.712,1.001,2.712,3.006
		c0,1.495-0.642,2.796-1.929,3.896c-1.285,1.102-2.788,1.653-4.51,1.653c-2.43,0-4.455-0.996-6.08-2.987
		c-1.623-1.991-2.434-4.483-2.434-7.477c0-6.89,3.593-13.76,10.778-20.606c7.188-6.847,14.383-10.273,21.582-10.273
		c3.079,0,5.83,0.729,8.26,2.182c2.429,1.456,4.08,3.354,4.955,5.698C109.978,48.634,110.149,47.505,110.149,46.375z"/>
</g>
</svg>
